<svg width="150" height="36" viewBox="0 0 150 36" fill="none" xmlns="http://www.w3.org/2000/svg">
<path d="M16.3364 1.32349L1.32457 16.3199C0.593031 17.0506 0.593032 18.2355 1.32457 18.9663L1.32458 18.9663C2.05612 19.6971 3.24218 19.6971 3.97372 18.9663L18.9856 3.96991C19.7171 3.23912 19.7171 2.05428 18.9856 1.32349C18.254 0.592706 17.068 0.592706 16.3364 1.32349Z" fill="#4686EE"/>
<path d="M21.6564 6.65552L6.64452 21.6519C5.91298 22.3827 5.91298 23.5675 6.64452 24.2983L6.64452 24.2983C7.37606 25.0291 8.56212 25.0291 9.29366 24.2983L24.3055 9.30193C25.037 8.57115 25.037 7.38631 24.3055 6.65552C23.574 5.92473 22.3879 5.92473 21.6564 6.65552Z" fill="#4686EE"/>
<path d="M32.0636 17.034L17.0517 32.0303C16.3202 32.7611 16.3202 33.9459 17.0517 34.6767L17.0517 34.6767C17.7833 35.4075 18.9693 35.4075 19.7009 34.6767L34.7127 19.6804C35.4443 18.9496 35.4443 17.7647 34.7127 17.034C33.9812 16.3032 32.7951 16.3032 32.0636 17.034Z" fill="#4686EE"/>
<path d="M26.9049 11.8814L17.1585 21.6177C16.427 22.3485 16.427 23.5333 17.1585 24.2641L17.1585 24.2641C17.8901 24.9949 19.0761 24.9949 19.8077 24.2641L29.554 14.5278C30.2856 13.797 30.2856 12.6122 29.554 11.8814C28.8225 11.1506 27.6364 11.1506 26.9049 11.8814Z" fill="#4686EE"/>
<path d="M11.9064 29.5667L16.9839 34.639C17.7155 35.3697 18.9015 35.3697 19.6331 34.639L19.6331 34.6389C20.3646 33.9082 20.3646 32.7233 19.6331 31.9925L14.5555 26.9202C13.824 26.1895 12.6379 26.1895 11.9064 26.9202L11.9064 26.9202C11.1748 27.651 11.1748 28.8359 11.9064 29.5667Z" fill="#4686EE"/>
<path d="M42.7675 26.3673V9.65405H46.2331V26.3673H42.7675ZM49.8958 26.3673V13.9279H53.1702V14.9068C53.6482 14.5088 54.174 14.2064 54.7476 13.9995C55.337 13.7926 55.9744 13.6891 56.6597 13.6891C58.0937 13.6891 59.2727 14.1507 60.197 15.0739C61.121 15.9971 61.5832 17.183 61.5832 18.6314V26.3673H58.3088V19.109C58.3088 18.329 58.0698 17.7003 57.5918 17.2228C57.1296 16.7452 56.5081 16.5065 55.7275 16.5065C55.1857 16.5065 54.6917 16.6179 54.2457 16.8407C53.8155 17.0477 53.457 17.3501 53.1702 17.748V26.3673H49.8958ZM66.1248 22.8575V16.6736H63.5674V13.9279H66.1248V10.7523L69.3992 10.0122V13.9279H72.9365V16.6736H69.3992V22.189C69.3992 22.778 69.5268 23.1918 69.7816 23.4305C70.0366 23.6693 70.4828 23.7887 71.12 23.7887C71.4228 23.7887 71.7096 23.7727 71.9804 23.7409C72.2514 23.6932 72.5461 23.6136 72.8647 23.5021V26.1763C72.5143 26.2878 72.092 26.3752 71.598 26.4389C71.1042 26.5184 70.6819 26.5583 70.3313 26.5583C68.945 26.5583 67.8934 26.2479 67.1764 25.6271C66.4754 24.9903 66.1248 24.0673 66.1248 22.8575ZM86.4339 24.8153C85.6691 25.4361 84.8804 25.8897 84.0677 26.1763C83.2711 26.4628 82.3787 26.606 81.3909 26.606C80.4508 26.606 79.5665 26.4389 78.7379 26.1046C77.9253 25.7704 77.2161 25.3167 76.6107 24.7437C76.0211 24.1707 75.5512 23.4943 75.2006 22.7142C74.866 21.9184 74.6987 21.0668 74.6987 20.1595C74.6987 19.2681 74.8581 18.4325 75.1767 17.6525C75.5113 16.8567 75.9654 16.1722 76.539 15.5992C77.1126 15.0102 77.7897 14.5486 78.5706 14.2144C79.3672 13.8801 80.2118 13.713 81.104 13.713C81.9805 13.713 82.7931 13.8881 83.5419 14.2382C84.3067 14.5725 84.96 15.0341 85.5018 15.6231C86.0594 16.212 86.4896 16.9203 86.7924 17.748C87.111 18.5598 87.2704 19.4432 87.2704 20.3983V21.2578H77.997C78.22 22.0378 78.6502 22.6665 79.2876 23.144C79.925 23.6215 80.6738 23.8603 81.5343 23.8603C82.0761 23.8603 82.5859 23.7727 83.0639 23.5977C83.5419 23.4226 83.9482 23.1758 84.2828 22.8575L86.4339 24.8153ZM81.0323 16.411C80.2835 16.411 79.6382 16.6418 79.0964 17.1034C78.5546 17.5491 78.1803 18.1539 77.9731 18.918H84.0677C83.8605 18.1857 83.4781 17.5888 82.9205 17.1272C82.3787 16.6497 81.7494 16.411 81.0323 16.411ZM90.108 26.3673V13.9279H93.3824V15.2888C93.7808 14.7476 94.2588 14.3417 94.8164 14.0711C95.39 13.7846 96.0193 13.6413 96.7046 13.6413C97.0232 13.6573 97.2861 13.6891 97.4933 13.7369C97.7163 13.7687 97.9075 13.8324 98.0669 13.9279V16.793C97.8279 16.6816 97.565 16.602 97.2782 16.5542C96.9914 16.4905 96.6967 16.4587 96.3938 16.4587C95.7564 16.4587 95.167 16.6179 94.6252 16.9362C94.0994 17.2546 93.6852 17.7162 93.3824 18.321V26.3673H90.108ZM100.887 26.3673V9.65405H113.818V12.6624H104.353V16.602H110.639V19.5149H104.353V26.3673H100.887ZM119.008 26.5822C117.67 26.5822 116.578 26.2319 115.734 25.5316C114.889 24.8153 114.467 23.8921 114.467 22.762C114.467 21.5842 114.921 20.6609 115.829 19.9924C116.737 19.3238 117.988 18.9896 119.582 18.9896C120.091 18.9896 120.602 19.0294 121.111 19.109C121.621 19.1885 122.123 19.3079 122.617 19.4671V18.5837C122.617 17.8674 122.394 17.3262 121.948 16.9601C121.502 16.594 120.848 16.411 119.988 16.411C119.462 16.411 118.889 16.4985 118.267 16.6736C117.662 16.8328 116.969 17.0874 116.188 17.4376L114.993 15.0262C115.965 14.5805 116.905 14.2462 117.813 14.0234C118.737 13.8005 119.645 13.6891 120.538 13.6891C122.211 13.6891 123.509 14.095 124.434 14.9068C125.374 15.7026 125.844 16.8328 125.844 18.2972V26.3673H122.617V25.5077C122.091 25.8738 121.534 26.1445 120.944 26.3195C120.37 26.4945 119.725 26.5822 119.008 26.5822ZM117.598 22.6904C117.598 23.1679 117.805 23.5499 118.219 23.8364C118.634 24.1069 119.183 24.2423 119.868 24.2423C120.41 24.2423 120.904 24.1786 121.35 24.0513C121.812 23.908 122.235 23.7091 122.617 23.4544V21.5921C122.219 21.4328 121.797 21.3215 121.35 21.2578C120.92 21.1783 120.466 21.1384 119.988 21.1384C119.239 21.1384 118.65 21.2817 118.219 21.5682C117.805 21.8387 117.598 22.2128 117.598 22.6904ZM128.102 24.887L129.727 22.7142C130.46 23.1918 131.153 23.5499 131.806 23.7887C132.459 24.0114 133.113 24.1229 133.766 24.1229C134.499 24.1229 135.081 24.0035 135.511 23.7648C135.957 23.526 136.18 23.2077 136.18 22.8097C136.18 22.4915 136.053 22.2367 135.798 22.0457C135.559 21.8547 135.168 21.7193 134.626 21.6398L132.236 21.2817C131.01 21.0907 130.069 20.6927 129.416 20.0879C128.779 19.483 128.46 18.6792 128.46 17.6764C128.46 16.4826 128.93 15.5276 129.87 14.8113C130.81 14.095 132.069 13.7369 133.647 13.7369C134.555 13.7369 135.439 13.8722 136.299 14.1427C137.16 14.3974 137.98 14.7794 138.761 15.2888L137.184 17.3899C136.499 16.9919 135.845 16.6975 135.224 16.5065C134.603 16.2995 133.973 16.1961 133.336 16.1961C132.746 16.1961 132.268 16.3075 131.902 16.5303C131.551 16.7532 131.376 17.0477 131.376 17.4138C131.376 17.748 131.503 18.0107 131.758 18.2017C132.029 18.3768 132.467 18.5041 133.073 18.5837L135.463 18.9418C136.674 19.1169 137.606 19.5149 138.259 20.1356C138.929 20.7564 139.263 21.5443 139.263 22.4994C139.263 23.0884 139.12 23.6375 138.833 24.1468C138.562 24.6403 138.188 25.0701 137.71 25.4361C137.232 25.8021 136.658 26.0886 135.989 26.2956C135.32 26.5026 134.595 26.606 133.814 26.606C132.683 26.606 131.623 26.4628 130.635 26.1763C129.647 25.8738 128.803 25.444 128.102 24.887ZM143.188 22.8575V16.6736H140.631V13.9279H143.188V10.7523L146.463 10.0122V13.9279H150V16.6736H146.463V22.189C146.463 22.778 146.59 23.1918 146.845 23.4305C147.1 23.6693 147.546 23.7887 148.184 23.7887C148.486 23.7887 148.773 23.7727 149.044 23.7409C149.315 23.6932 149.61 23.6136 149.928 23.5021V26.1763C149.578 26.2878 149.156 26.3752 148.662 26.4389C148.168 26.5184 147.745 26.5583 147.395 26.5583C146.009 26.5583 144.957 26.2479 144.24 25.6271C143.539 24.9903 143.188 24.0673 143.188 22.8575Z" fill="#4686EE"/>
</svg>
